<?xml version="1.0" encoding="utf-8"?>
<!-- Generator: Adobe Illustrator 15.1.0, SVG Export Plug-In . SVG Version: 6.00 Build 0)  -->
<!DOCTYPE svg PUBLIC "-//W3C//DTD SVG 1.1//EN" "http://www.w3.org/Graphics/SVG/1.1/DTD/svg11.dtd">
<svg version="1.1" id="Layer_1" xmlns="http://www.w3.org/2000/svg" xmlns:xlink="http://www.w3.org/1999/xlink" x="0px" y="0px"
	 width="164px" height="50px" viewBox="0 0 164 50" enable-background="new 0 0 164 50" xml:space="preserve">
<path fill="#2CB1BC" d="M32.8,0h98.4C149.315,0,164,4.477,164,10v30c0,5.523-14.685,10-32.8,10H32.8C14.684,50,0,45.523,0,40V10
	C0,4.477,14.684,0,32.8,0z"/>
<path fill="#F2F2F2" d="M78.55,16.45V28.4c0,1.85-0.525,3.274-1.575,4.274c-1.033,1-2.434,1.5-4.2,1.5
	c-1.85,0-3.333-0.524-4.45-1.575c-1.117-1.05-1.675-2.541-1.675-4.475h4.25c0,0.733,0.15,1.291,0.45,1.675
	c0.3,0.366,0.733,0.55,1.3,0.55c0.517,0,0.917-0.166,1.2-0.5c0.283-0.333,0.425-0.816,0.425-1.449V16.45H78.55z M90.854,34.2
	c-1.367,0-2.601-0.292-3.7-0.875c-1.083-0.583-1.942-1.417-2.575-2.5c-0.617-1.083-0.925-2.351-0.925-3.8
	c0-1.434,0.316-2.692,0.95-3.775c0.633-1.1,1.5-1.942,2.6-2.525c1.1-0.583,2.334-0.875,3.7-0.875s2.6,0.292,3.7,0.875
	c1.1,0.583,1.967,1.425,2.6,2.525c0.633,1.083,0.95,2.342,0.95,3.775s-0.325,2.699-0.976,3.8c-0.633,1.083-1.508,1.917-2.625,2.5
	C93.453,33.908,92.22,34.2,90.854,34.2z M90.854,30.5c0.816,0,1.508-0.3,2.074-0.9c0.584-0.6,0.875-1.458,0.875-2.574
	c0-1.117-0.283-1.976-0.85-2.575c-0.55-0.6-1.233-0.9-2.05-0.9c-0.833,0-1.525,0.3-2.075,0.9c-0.55,0.583-0.825,1.441-0.825,2.575
	c0,1.116,0.267,1.975,0.8,2.574C89.354,30.2,90.037,30.5,90.854,30.5z M107.195,22.025c0.4-0.65,0.976-1.175,1.726-1.575
	c0.75-0.4,1.608-0.6,2.575-0.6c1.15,0,2.191,0.292,3.125,0.875c0.934,0.583,1.667,1.417,2.199,2.5
	c0.551,1.083,0.826,2.341,0.826,3.775s-0.275,2.7-0.826,3.8c-0.532,1.083-1.266,1.925-2.199,2.525
	c-0.934,0.583-1.975,0.875-3.125,0.875c-0.982,0-1.842-0.192-2.575-0.575c-0.733-0.4-1.308-0.925-1.726-1.575V34h-4.274V15.5h4.274
	V22.025z M113.296,27c0-1.066-0.3-1.9-0.899-2.5c-0.584-0.617-1.309-0.925-2.176-0.925c-0.85,0-1.574,0.308-2.175,0.925
	c-0.583,0.617-0.875,1.459-0.875,2.525s0.292,1.908,0.875,2.524c0.601,0.616,1.325,0.925,2.175,0.925s1.575-0.309,2.176-0.925
	C112.996,28.916,113.296,28.066,113.296,27z M124.539,18.6c-0.75,0-1.367-0.217-1.85-0.65c-0.467-0.45-0.701-1-0.701-1.65
	c0-0.667,0.234-1.216,0.701-1.65c0.482-0.45,1.1-0.675,1.85-0.675c0.732,0,1.333,0.225,1.8,0.675
	c0.483,0.434,0.726,0.983,0.726,1.65c0,0.65-0.242,1.2-0.726,1.65C125.872,18.383,125.271,18.6,124.539,18.6z M126.664,20.05V34
	h-4.275V20.05H126.664z M139.262,23.6h-2.3V34h-4.274V23.6h-1.551v-3.55h1.551v-0.4c0-1.717,0.492-3.017,1.475-3.9
	c0.982-0.9,2.425-1.35,4.324-1.35c0.318,0,0.551,0.008,0.701,0.025v3.625c-0.817-0.05-1.393,0.067-1.726,0.35s-0.5,0.792-0.5,1.525
	v0.125h2.3V23.6z M158.021,20.05l-8.75,20.575h-4.601l3.2-7.1l-5.676-13.476h4.775l3.225,8.726l3.201-8.726H158.021z"/>
<path fill="#FFFFFF" d="M26.004,9.563h5.859V29.25c0,1.811-0.404,3.412-1.211,4.805c-0.794,1.381-1.92,2.447-3.379,3.203
	s-3.105,1.133-4.941,1.133c-3.008,0-5.352-0.762-7.031-2.285c-1.68-1.537-2.52-3.705-2.52-6.504h5.898
	c0,1.393,0.293,2.422,0.879,3.086s1.51,0.996,2.773,0.996c1.12,0,2.012-0.385,2.676-1.152s0.996-1.861,0.996-3.281V9.563z"/>
</svg>
